# xmcd
#
# Track frame offsets:
#	150
#	25360
#	46110
#	61346
#	72589
#	101486
#	128700
#	149663
#	164800
#	180000
#	187601
#	210744
#	219068
#	229823
#	248326
#	263808
#
# Disc length: 3710 seconds
#
# Revision: 0
# Processed by: cddbd v1.5.2PL0 Copyright (c) Steve Scherf et al.
# Submitted via: audiograbber 1.83.01
#
DISCID=da0e7c10
DTITLE=Gary Fogarty - Bigger, Sharper Spurs
DYEAR=2001
DGENRE=Country
TTITLE0=Saturday Morning Fever
TTITLE1=Still Line Dancing
TTITLE2=A Rocky Road To heaven
TTITLE3=The Best Mates On Earth
TTITLE4=Bar-B-Que Blues
TTITLE5=Garden Gnome Assassin
TTITLE6=Blind Date
TTITLE7=Bigger, Sharper Spurs
TTITLE8=Cross Country Capers
TTITLE9=Threading The Needle
TTITLE10=Ode To the Weekend Sportsman
TTITLE11=Politically Correct Poet
TTITLE12=You'll Find It In The Bible
TTITLE13=Flower Powered Car Rally
TTITLE14=Rough Copuntry Ringer (Performed by Mike Horsewood)
TTITLE15=The Last Parade
EXTD=
EXTT0=
EXTT1=
EXTT2=
EXTT3=
EXTT4=
EXTT5=
EXTT6=
EXTT7=
EXTT8=
EXTT9=
EXTT10=
EXTT11=
EXTT12=
EXTT13=
EXTT14=
EXTT15=
PLAYORDER=
